Coordinates
version=1
nRows=17
nColumns=40
inDegrees=yes

Units are S.I. units (second, meters, Newtons, ...)
Angles are in degrees.

endheader
time	pelvis_tilt	pelvis_list	pelvis_rotation	pelvis_tx	pelvis_ty	pelvis_tz	hip_flexion_r	hip_adduction_r	hip_rotation_r	knee_angle_r	knee_angle_r_beta	ankle_angle_r	subtalar_angle_r	mtp_angle_r	hip_flexion_l	hip_adduction_l	hip_rotation_l	knee_angle_l	knee_angle_l_beta	ankle_angle_l	subtalar_angle_l	mtp_angle_l	lumbar_extension	lumbar_bending	lumbar_rotation	arm_flex_r	arm_add_r	arm_rot_r	elbow_flex_r	pro_sup_r	wrist_flex_r	wrist_dev_r	arm_flex_l	arm_add_l	arm_rot_l	elbow_flex_l	pro_sup_l	wrist_flex_l	wrist_dev_l
      1.75500000	     -4.28706454	     -3.15537538	     -4.40466548	      0.99929112	      0.92998479	      0.43824748	     24.83902957	     -3.67151447	    -11.89423584	     15.15807680	     15.15807680	      3.19704337	      5.23852082	      5.34833267	      4.35275192	     -4.91470917	    -12.86797346	     13.58455358	     13.58455358	     13.89794271	     -5.54660370	     -8.37443871	     -8.88835902	      3.06063459	      1.57930198	    -10.62711870	    -12.59961411	    -10.99331296	     24.43341469	     47.36714248	      0.00000000	      0.00000000	     22.27690783	    -20.09223954	    -10.61477488	     79.02239010	     47.47128437	      0.00000000	      0.00000000
      1.76821429	     -4.23323598	     -2.95885615	     -4.28279185	      1.00106056	      0.92928917	      0.44016716	     24.07302696	     -3.53655630	    -12.25710497	     14.72952740	     14.72952740	      2.98246176	      5.46513040	      4.96378219	      3.49538155	     -4.75218383	    -13.05032204	     12.98375934	     12.98375934	     14.11609605	     -4.89666115	     -8.47834481	     -8.71338251	      2.90675070	      1.54387355	    -11.00643271	    -12.52585894	    -10.99129354	     24.74462778	     47.33592257	      0.00000000	      0.00000000	     22.10079779	    -19.74722313	    -11.08928049	     79.77054106	     47.52240305	      0.00000000	      0.00000000
      1.78142857	     -4.37497248	     -2.79917393	     -4.16079707	      1.00261571	      0.92821624	      0.44223698	     23.71579600	     -3.40139291	    -12.37241848	     14.80753426	     14.80753426	      2.95832909	      5.39893099	      4.95139889	      3.18792684	     -4.70465236	    -13.02849787	     12.99339577	     12.99339577	     14.33507559	     -4.90936813	     -8.55626271	     -8.28741385	      2.85409507	      1.55370262	    -11.00843967	    -12.49696966	    -10.98937969	     24.76619057	     47.33425758	      0.00000000	      0.00000000	     22.08853402	    -19.71278256	    -11.10132424	     79.81280890	     47.52408398	      0.00000000	      0.00000000
      1.79464286	     -4.14359522	     -2.75788842	     -3.92807839	      1.00492466	      0.92776783	      0.44446078	     22.60070707	     -3.13438964	    -12.47830836	     14.32651988	     14.32651988	      1.71318745	      4.93298477	      0.94017259	      2.11475457	     -4.77992736	    -13.37053437	     12.46479403	     12.46479403	     15.02502019	     -3.46939789	     -8.04530861	     -8.32506521	      2.84253793	      1.01729868	    -11.33247529	    -12.40507762	    -10.59348716	     26.27138245	     47.17499064	      0.00000000	      0.00000000	     21.01110850	    -18.99615221	    -12.93365573	     81.37176216	     47.69437862	      0.00000000	      0.00000000
      1.80785714	     -4.20397385	     -2.74187792	     -3.75009612	      1.00680617	      0.92701133	      0.44687323	     22.12609029	     -2.92289187	    -12.53978503	     14.52885945	     14.52885945	      1.90503942	      4.78917006	      0.78617858	      1.67424814	     -4.90727814	    -13.21776757	     12.42691304	     12.42691304	     15.29999321	     -3.41603606	     -8.09269839	     -7.96790226	      2.86594209	      1.06029482	    -11.19385898	    -12.28862540	    -10.55075719	     26.32169481	     47.16900772	      0.00000000	      0.00000000	     20.76245705	    -18.73107076	    -12.83809735	     81.31589521	     47.68602441	      0.00000000	      0.00000000
      1.82107143	     -3.95174081	     -2.82483695	     -3.60842383	      1.00891211	      0.92687430	      0.44948539	     21.47281536	     -2.63483113	    -12.25665341	     15.01959675	     15.01959675	      1.96857160	      4.04890942	     -0.05536004	      0.73635659	     -5.12663704	    -13.23635152	     12.15484138	     12.15484138	     15.59598154	     -2.98174135	     -7.61264665	     -8.02767212	      3.06476700	      1.13004649	    -10.86576869	    -12.23676940	    -10.33756435	     26.46423267	     47.13897583	      0.00000000	      0.00000000	     20.33376913	    -18.31077781	    -12.92148547	     81.15744304	     47.69037652	      0.00000000	      0.00000000
      1.83428571	     -3.84205095	     -2.97421573	     -3.44386557	      1.01086736	      0.92666356	      0.45217167	     20.99187795	     -2.32385463	    -12.11622234	     15.51037117	     15.51037117	      2.21326968	      3.55419165	     -0.69452703	      0.21158293	     -5.49067289	    -13.12212451	     12.34593836	     12.34593836	     15.91043599	     -2.87802878	     -7.30498063	     -7.92758393	      3.37631703	      1.21491368	    -10.38503307	    -12.17237775	    -10.19080756	     26.67262201	     47.11686838	      0.00000000	      0.00000000	     19.78014513	    -17.87973280	    -12.93467154	     80.91611591	     47.68573413	      0.00000000	      0.00000000
      1.84750000	     -3.81141257	     -3.05645630	     -3.34200629	      1.01255108	      0.92647103	      0.45531839	     20.71846550	     -1.99243674	    -11.50040025	     16.05475309	     16.05475309	      2.18441781	      2.21965787	     -2.15468037	      0.01032212	     -5.90596282	    -13.22986438	     13.01893454	     13.01893454	     16.69856239	     -2.41595027	     -6.00724027	     -7.73471611	      3.47127842	      1.07367269	     -9.61482551	    -12.06422893	     -9.67467985	     27.05423536	     47.04783675	      0.00000000	      0.00000000	     19.15115152	    -17.57896375	    -13.49148176	     80.36260695	     47.71619628	      0.00000000	      0.00000000
      1.86071429	     -3.66927826	     -3.24099641	     -3.27992776	      1.01441309	      0.92675550	      0.45852768	     20.22830485	     -1.65421478	    -11.44988148	     16.47357002	     16.47357002	      2.65566567	      2.09168901	     -2.50118034	     -0.46445058	     -6.36068628	    -13.11728899	     13.36047013	     13.36047013	     16.78094413	     -2.49194465	     -5.85015412	     -7.68673205	      3.70014173	      1.36169933	     -8.90806962	    -11.95204566	     -9.57568978	     27.31051831	     47.03314540	      0.00000000	      0.00000000	     18.45045651	    -17.02823424	    -13.32336969	     80.07923118	     47.69599334	      0.00000000	      0.00000000
      1.87392857	     -3.58892458	     -3.43682372	     -3.15624743	      1.01591226	      0.92691639	      0.46196963	     20.00894995	     -1.29340509	    -11.18640904	     17.18722743	     17.18722743	      3.09732058	      1.28121311	     -3.13945139	     -0.35990225	     -7.01063057	    -13.06589835	     14.66847443	     14.66847443	     17.39249572	     -2.48358313	     -4.93095456	     -7.61512024	      3.94029369	      1.19141425	     -7.83825077	    -11.95522106	     -9.12133156	     27.74254411	     46.97661963	      0.00000000	      0.00000000	     17.69691342	    -16.89135829	    -13.60433209	     79.09215698	     47.69675777	      0.00000000	      0.00000000
      1.88714286	     -3.47816398	     -3.60257711	     -3.09957153	      1.01745317	      0.92737576	      0.46556822	     19.64162875	     -0.94052908	    -11.01221876	     17.64856912	     17.64856912	      3.60166799	      0.83015936	     -3.47972593	     -0.30379984	     -7.63447728	    -13.05130785	     15.96067360	     15.96067360	     17.95779774	     -2.38817279	     -3.87636259	     -7.54708527	      4.12730338	      1.21959607	     -6.74884613	    -11.96699278	     -8.47157625	     28.15237379	     46.90370920	      0.00000000	      0.00000000	     16.86653244	    -16.50238587	    -13.79344772	     78.06332230	     47.69068898	      0.00000000	      0.00000000
      1.90035714	     -3.27659417	     -3.72556078	     -3.01218288	      1.01891192	      0.92808984	      0.46923809	     19.15453139	     -0.66448435	    -11.00486845	     18.06581565	     18.06581565	      4.20361666	      0.69928555	     -3.66521595	     -0.23008618	     -8.21842878	    -12.85888549	     17.38332020	     17.38332020	     17.99515777	     -2.74837783	     -3.54891701	     -7.63741957	      4.26516255	      1.30987999	     -5.58068388	    -11.89887187	     -8.12191011	     28.65968048	     46.85813930	      0.00000000	      0.00000000	     16.07782415	    -16.22863471	    -13.74512844	     77.10690605	     47.66770936	      0.00000000	      0.00000000
      1.91357143	     -3.18071854	     -3.80096898	     -2.91948891	      1.02017124	      0.92876583	      0.47298129	     18.76995277	     -0.43431598	    -11.08548576	     18.45277212	     18.45277212	      5.05583174	      0.77866089	     -2.97153738	      0.27476362	     -8.85477246	    -12.66209260	     19.42369356	     19.42369356	     18.61833299	     -2.86741767	     -1.91400189	     -7.55882098	      4.33654165	      1.36722385	     -4.53302506	    -12.20883007	     -5.46272260	     29.65000526	     46.57099911	      0.00000000	      0.00000000	     15.47061863	    -15.81386585	    -13.85216227	     75.10655773	     47.65158128	      0.00000000	      0.00000000
      1.92678571	     -3.03208189	     -3.84303374	     -2.76088852	      1.02129189	      0.92950104	      0.47665415	     18.22641329	     -0.24294882	    -11.26283859	     18.61352529	     18.61352529	      5.58433288	      0.91937316	     -3.13523032	      0.83552009	     -9.42085781	    -12.12375794	     21.50273155	     21.50273155	     18.21235075	     -3.69478716	     -2.33364454	     -7.63270020	      4.35102689	      1.32081583	     -3.16389168	    -12.13277812	     -5.32166920	     30.37218321	     46.53663710	      0.00000000	      0.00000000	     14.47909328	    -15.64688054	    -13.64665123	     73.90207989	     47.61169673	      0.00000000	      0.00000000
      1.94000000	     -2.96308031	     -3.91679694	     -2.50646750	      1.02220484	      0.93000071	      0.48020898	     17.71835598	     -0.04470319	    -11.64784416	     18.68840562	     18.68840562	      6.12869186	      1.21271539	     -3.25966810	      1.85390552	    -10.07322949	    -11.37405099	     24.16968247	     24.16968247	     17.58543048	     -4.87861972	     -3.03356712	     -7.50815935	      4.46292713	      1.05900197	     -1.73333271	    -12.10600238	     -5.11652038	     31.22245911	     46.49218709	      0.00000000	      0.00000000	     13.64548392	    -15.54652337	    -13.42583375	     72.10405534	     47.56182164	      0.00000000	      0.00000000
      1.95321429	     -2.83654311	     -3.80753392	     -2.28612556	      1.02288023	      0.93063196	      0.48357403	     17.17985500	     -0.07274780	    -12.14815980	     18.79771399	     18.79771399	      6.75164645	      1.78332006	     -3.17614064	      2.83648481	    -10.39973700	    -10.34624766	     26.71821907	     26.71821907	     16.10665278	     -6.72750530	     -4.94436850	     -7.54845344	      4.33026917	      1.33862234	     -0.63292891	    -12.32369617	     -4.13963441	     32.56504917	     46.35670887	      0.00000000	      0.00000000	     13.60536374	    -15.10390271	    -12.91630287	     68.67957710	     47.47162842	      0.00000000	      0.00000000
      1.96642857	     -2.66941493	     -3.88692191	     -1.93612979	      1.02331505	      0.93115375	      0.48683455	     16.47986677	      0.14551530	    -12.60041221	     18.66554329	     18.66554329	      7.17598484	      2.01487115	     -3.28604887	      4.22367399	    -11.07818795	     -9.42452374	     30.06990684	     30.06990684	     15.13219181	     -7.89064279	     -5.65423992	     -7.71768091	      4.40075204	      1.26666187	      0.86130966	    -12.38042458	     -4.06048761	     33.46585243	     46.32233707	      0.00000000	      0.00000000	     12.74796846	    -14.84770294	    -12.53920577	     67.34490009	     47.41702306	      0.00000000	      0.00000000
